<svg width="320" height="64" viewBox="0 0 320 64" fill="none" xmlns="http://www.w3.org/2000/svg">
<path d="M316.247 41.0217C315.266 42.2519 313.765 42.867 311.743 42.867C310.659 42.867 309.717 42.4756 308.917 41.6927C308.125 40.9012 307.73 39.9205 307.73 38.7505C307.73 37.3482 308.341 36.1653 309.562 35.2017C310.792 34.2296 312.358 33.7435 314.259 33.7435C314.776 33.7435 315.361 33.8553 316.014 34.079C316.014 31.8422 315.017 30.7238 313.021 30.7238C311.489 30.7238 310.311 31.1368 309.485 31.9627L308.452 29.9108C308.917 29.5323 309.558 29.2097 310.375 28.943C311.201 28.6677 311.988 28.53 312.737 28.53C314.741 28.53 316.195 28.986 317.098 29.8979C318.01 30.8098 318.466 32.2595 318.466 34.2468V39.2021C318.466 40.4152 318.828 41.2239 319.55 41.6282V42.8541C318.552 42.8541 317.804 42.7122 317.305 42.4283C316.815 42.1444 316.462 41.6755 316.247 41.0217ZM316.014 35.8211C315.24 35.6491 314.698 35.563 314.389 35.563C313.15 35.563 312.139 35.8813 311.356 36.518C310.573 37.1546 310.182 37.9074 310.182 38.7763C310.182 40.213 311.029 40.9313 312.724 40.9313C313.963 40.9313 315.06 40.342 316.014 39.1634V35.8211Z" fill="#091A3E"/>
<path d="M299.103 30.7238H297.503V28.7881H299.103V25.8975L301.555 24.9554V28.7881H305.349V30.7238H301.555V37.589C301.555 38.7505 301.748 39.5764 302.135 40.0667C302.531 40.5571 303.163 40.8023 304.032 40.8023C304.66 40.8023 305.31 40.6431 305.981 40.3248L306.342 42.4799C305.327 42.738 304.213 42.867 303 42.867C301.907 42.867 300.983 42.4627 300.226 41.654C299.477 40.8367 299.103 39.8086 299.103 38.5698V30.7238Z" fill="#091A3E"/>
<path d="M288.889 30.7238H287.289V28.7881H288.889V25.8975L291.341 24.9554V28.7881H295.135V30.7238H291.341V37.589C291.341 38.7505 291.534 39.5764 291.921 40.0667C292.317 40.5571 292.949 40.8023 293.818 40.8023C294.446 40.8023 295.096 40.6431 295.767 40.3248L296.128 42.4799C295.113 42.738 293.999 42.867 292.786 42.867C291.693 42.867 290.769 42.4627 290.011 41.654C289.263 40.8367 288.889 39.8086 288.889 38.5698V30.7238Z" fill="#091A3E"/>
<path d="M282.339 42.6089V33.9241C282.339 32.8917 282.086 32.0787 281.578 31.4851C281.07 30.8915 280.356 30.5947 279.436 30.5947C278.842 30.5947 278.244 30.7711 277.642 31.1238C277.048 31.4679 276.592 31.8722 276.274 32.3368V42.6089H273.822V23.1229H276.274V30.3108C276.601 29.8032 277.126 29.3817 277.848 29.0461C278.58 28.702 279.333 28.53 280.107 28.53C281.569 28.53 282.714 29.0117 283.539 29.9753C284.374 30.9388 284.791 32.2551 284.791 33.9241V42.6089H282.339Z" fill="#091A3E"/>
<path d="M261.956 28.7881V37.6019C261.956 39.7355 262.881 40.8023 264.731 40.8023C265.539 40.8023 266.279 40.57 266.95 40.1054C267.621 39.6409 268.064 39.1032 268.28 38.4923V28.7881H270.731V42.6089H268.28V40.699C268.004 41.241 267.449 41.74 266.615 42.196C265.789 42.6433 264.98 42.867 264.189 42.867C262.675 42.867 261.513 42.4325 260.705 41.5636C259.904 40.6947 259.504 39.4602 259.504 37.86V28.7881H261.956Z" fill="#091A3E"/>
<path d="M250.297 30.7238H248.697V28.7881H250.297V25.8975L252.749 24.9554V28.7881H256.543V30.7238H252.749V37.589C252.749 38.7505 252.942 39.5764 253.329 40.0667C253.725 40.5571 254.357 40.8023 255.226 40.8023C255.854 40.8023 256.504 40.6431 257.175 40.3248L257.536 42.4799C256.521 42.738 255.407 42.867 254.194 42.867C253.101 42.867 252.176 42.4627 251.419 41.654C250.671 40.8367 250.297 39.8086 250.297 38.5698V30.7238Z" fill="#091A3E"/>
<path d="M244.677 23.5616C245.098 23.5616 245.455 23.7122 245.748 24.0133C246.049 24.3058 246.199 24.6585 246.199 25.0715C246.199 25.493 246.049 25.8544 245.748 26.1555C245.455 26.448 245.098 26.5942 244.677 26.5942C244.264 26.5942 243.907 26.448 243.605 26.1555C243.313 25.8544 243.167 25.493 243.167 25.0715C243.167 24.6499 243.313 24.2929 243.605 24.0004C243.898 23.7079 244.255 23.5616 244.677 23.5616ZM243.334 42.6088V30.8527H241.438V28.788H245.786V42.6088H243.334Z" fill="#091A3E"/>
<path d="M232.81 30.7238H231.21V28.7881H232.81V25.8975L235.262 24.9554V28.7881H239.056V30.7238H235.262V37.589C235.262 38.7505 235.456 39.5764 235.843 40.0667C236.239 40.5571 236.871 40.8023 237.74 40.8023C238.368 40.8023 239.017 40.6431 239.689 40.3248L240.05 42.4799C239.035 42.738 237.921 42.867 236.708 42.867C235.615 42.867 234.69 42.4627 233.933 41.654C233.185 40.8367 232.81 39.8086 232.81 38.5698V30.7238Z" fill="#091A3E"/>
<path d="M220.583 41.7831L221.448 39.4602C222.815 40.3549 223.917 40.8023 224.751 40.8023C226.265 40.8023 227.022 40.1657 227.022 38.8924C227.022 37.9805 226.291 37.1976 224.829 36.5438C223.702 36.0276 222.94 35.6362 222.544 35.3695C222.157 35.1028 221.818 34.8017 221.525 34.4661C221.241 34.122 221.026 33.7607 220.88 33.3822C220.742 32.995 220.673 32.5821 220.673 32.1433C220.673 31.0077 221.086 30.1216 221.912 29.485C222.738 28.8483 223.818 28.53 225.151 28.53C226.158 28.53 227.427 28.8483 228.958 29.485L228.261 31.7562C227.289 30.9819 226.313 30.5948 225.332 30.5948C224.747 30.5948 224.252 30.7324 223.848 31.0077C223.452 31.283 223.254 31.6314 223.254 32.053C223.254 32.9391 223.758 33.6101 224.764 34.0661L226.519 34.8662C227.595 35.3566 228.377 35.9158 228.868 36.5438C229.358 37.1718 229.603 37.959 229.603 38.9053C229.603 40.1442 229.169 41.1163 228.3 41.8218C227.431 42.5186 226.227 42.867 224.687 42.867C223.233 42.867 221.865 42.5057 220.583 41.7831Z" fill="#091A3E"/>
<path d="M215.801 42.6089V34.5694C215.801 33.0983 215.578 32.0702 215.13 31.4852C214.692 30.8916 213.952 30.5948 212.911 30.5948C212.352 30.5948 211.767 30.7625 211.156 31.098C210.545 31.4336 210.076 31.8465 209.749 32.3369V42.6089H207.297V28.7881H208.975L209.749 30.569C210.558 29.2097 211.878 28.53 213.711 28.53C216.739 28.53 218.253 30.3711 218.253 34.0532V42.6089H215.801Z" fill="#091A3E"/>
<path d="M202.555 23.5616C202.976 23.5616 203.333 23.7122 203.626 24.0133C203.927 24.3058 204.077 24.6585 204.077 25.0715C204.077 25.493 203.927 25.8544 203.626 26.1555C203.333 26.448 202.976 26.5942 202.555 26.5942C202.142 26.5942 201.785 26.448 201.484 26.1555C201.191 25.8544 201.045 25.493 201.045 25.0715C201.045 24.6499 201.191 24.2929 201.484 24.0004C201.776 23.7079 202.133 23.5616 202.555 23.5616ZM201.213 42.6088V30.8527H199.316V28.788H203.665V42.6088H201.213Z" fill="#091A3E"/>
<path d="M194.212 41.0217C193.231 42.2519 191.73 42.867 189.708 42.867C188.624 42.867 187.682 42.4756 186.882 41.6927C186.091 40.9012 185.695 39.9205 185.695 38.7505C185.695 37.3482 186.306 36.1653 187.527 35.2017C188.758 34.2296 190.323 33.7435 192.225 33.7435C192.741 33.7435 193.326 33.8553 193.98 34.079C193.98 31.8422 192.982 30.7238 190.986 30.7238C189.454 30.7238 188.276 31.1368 187.45 31.9627L186.417 29.9108C186.882 29.5323 187.523 29.2097 188.34 28.943C189.166 28.6677 189.953 28.53 190.702 28.53C192.706 28.53 194.16 28.986 195.064 29.8979C195.975 30.8098 196.431 32.2595 196.431 34.2468V39.2021C196.431 40.4152 196.793 41.2239 197.515 41.6282V42.8541C196.517 42.8541 195.769 42.7122 195.27 42.4283C194.78 42.1444 194.427 41.6755 194.212 41.0217ZM193.98 35.8211C193.205 35.6491 192.663 35.563 192.354 35.563C191.115 35.563 190.104 35.8813 189.321 36.518C188.538 37.1546 188.147 37.9074 188.147 38.7763C188.147 40.213 188.994 40.9313 190.689 40.9313C191.928 40.9313 193.025 40.342 193.98 39.1634V35.8211Z" fill="#091A3E"/>
<path d="M183.907 31.1497C183.374 30.7797 182.836 30.5948 182.294 30.5948C181.425 30.5948 180.664 30.9948 180.01 31.7949C179.365 32.595 179.042 33.5585 179.042 34.6855V42.6089H176.59V28.7881H179.042V30.9948C179.937 29.3516 181.266 28.53 183.03 28.53C183.468 28.53 184.101 28.6075 184.927 28.7623L183.907 31.1497Z" fill="#091A3E"/>
<path d="M170.583 41.0217C169.602 42.2519 168.101 42.867 166.079 42.867C164.995 42.867 164.053 42.4756 163.253 41.6927C162.462 40.9012 162.066 39.9205 162.066 38.7505C162.066 37.3482 162.677 36.1653 163.898 35.2017C165.129 34.2296 166.694 33.7435 168.596 33.7435C169.112 33.7435 169.697 33.8553 170.351 34.079C170.351 31.8422 169.353 30.7238 167.357 30.7238C165.825 30.7238 164.647 31.1368 163.821 31.9627L162.789 29.9108C163.253 29.5323 163.894 29.2097 164.711 28.943C165.537 28.6677 166.324 28.53 167.073 28.53C169.077 28.53 170.531 28.986 171.435 29.8979C172.347 30.8098 172.803 32.2595 172.803 34.2468V39.2021C172.803 40.4152 173.164 41.2239 173.887 41.6282V42.8541C172.889 42.8541 172.14 42.7122 171.641 42.4283C171.151 42.1444 170.798 41.6755 170.583 41.0217ZM170.351 35.8211C169.576 35.6491 169.034 35.563 168.725 35.563C167.486 35.563 166.475 35.8813 165.692 36.518C164.909 37.1546 164.518 37.9074 164.518 38.7763C164.518 40.213 165.365 40.9313 167.06 40.9313C168.299 40.9313 169.396 40.342 170.351 39.1634V35.8211Z" fill="#091A3E"/>
<path d="M160.253 35.9373H150.29C150.29 37.5546 150.733 38.7978 151.619 39.6667C152.402 40.4238 153.409 40.8023 154.639 40.8023C156.041 40.8023 157.211 40.3937 158.149 39.5764L159.181 41.3443C158.803 41.7228 158.222 42.0497 157.439 42.325C156.459 42.6864 155.366 42.867 154.162 42.867C152.424 42.867 150.948 42.2777 149.735 41.0991C148.385 39.8 147.709 38.0536 147.709 35.8598C147.709 33.58 148.402 31.7519 149.787 30.3754C151.026 29.1451 152.493 28.53 154.187 28.53C156.157 28.53 157.702 29.0849 158.82 30.1947C159.904 31.2615 160.446 32.6767 160.446 34.4403C160.446 34.9823 160.382 35.4813 160.253 35.9373ZM154.303 30.5948C153.211 30.5948 152.295 30.9475 151.555 31.6529C150.849 32.324 150.449 33.1585 150.355 34.1564H158.007C158.007 33.1671 157.697 32.3412 157.078 31.6788C156.398 30.9561 155.473 30.5948 154.303 30.5948Z" fill="#091A3E"/>
<path d="M142.928 42.6089V34.5694C142.928 33.0983 142.704 32.0702 142.257 31.4852C141.818 30.8916 141.078 30.5948 140.037 30.5948C139.478 30.5948 138.893 30.7625 138.282 31.098C137.671 31.4336 137.202 31.8465 136.875 32.3369V42.6089H134.424V28.7881H136.101L136.875 30.569C137.684 29.2097 139.005 28.53 140.837 28.53C143.865 28.53 145.38 30.3711 145.38 34.0532V42.6089H142.928Z" fill="#091A3E"/>
<path d="M129.681 23.5616C130.102 23.5616 130.46 23.7122 130.752 24.0133C131.053 24.3058 131.204 24.6585 131.204 25.0715C131.204 25.493 131.053 25.8544 130.752 26.1555C130.46 26.448 130.102 26.5942 129.681 26.5942C129.268 26.5942 128.911 26.448 128.61 26.1555C128.317 25.8544 128.171 25.493 128.171 25.0715C128.171 24.6499 128.317 24.2929 128.61 24.0004C128.902 23.7079 129.259 23.5616 129.681 23.5616ZM128.339 42.6088V30.8527H126.442V28.788H130.791V42.6088H128.339Z" fill="#091A3E"/>
<path d="M124.654 31.1497C124.121 30.7797 123.583 30.5948 123.041 30.5948C122.172 30.5948 121.411 30.9948 120.757 31.7949C120.112 32.595 119.789 33.5585 119.789 34.6855V42.6089H117.337V28.7881H119.789V30.9948C120.684 29.3516 122.013 28.53 123.777 28.53C124.216 28.53 124.848 28.6075 125.674 28.7623L124.654 31.1497Z" fill="#091A3E"/>
<path d="M114.621 35.9373H104.659C104.659 37.5546 105.102 38.7978 105.988 39.6667C106.771 40.4238 107.777 40.8023 109.007 40.8023C110.41 40.8023 111.58 40.3937 112.517 39.5764L113.55 41.3443C113.171 41.7228 112.591 42.0497 111.808 42.325C110.827 42.6864 109.734 42.867 108.53 42.867C106.792 42.867 105.317 42.2777 104.104 41.0991C102.753 39.8 102.078 38.0536 102.078 35.8598C102.078 33.58 102.77 31.7519 104.155 30.3754C105.394 29.1451 106.861 28.53 108.556 28.53C110.526 28.53 112.07 29.0849 113.188 30.1947C114.272 31.2615 114.814 32.6767 114.814 34.4403C114.814 34.9823 114.75 35.4813 114.621 35.9373ZM108.672 30.5948C107.579 30.5948 106.663 30.9475 105.923 31.6529C105.218 32.324 104.818 33.1585 104.723 34.1564H112.376C112.376 33.1671 112.066 32.3412 111.446 31.6788C110.767 30.9561 109.842 30.5948 108.672 30.5948Z" fill="#091A3E"/>
<path d="M93.6441 30.7238H92.0439V28.7881H93.6441V25.8975L96.096 24.9554V28.7881H99.8899V30.7238H96.096V37.589C96.096 38.7505 96.2896 39.5764 96.6767 40.0667C97.0724 40.5571 97.7048 40.8023 98.5737 40.8023C99.2017 40.8023 99.8512 40.6431 100.522 40.3248L100.884 42.4799C99.8684 42.738 98.7543 42.867 97.5413 42.867C96.4487 42.867 95.5239 42.4627 94.7668 41.654C94.0184 40.8367 93.6441 39.8086 93.6441 38.5698V30.7238Z" fill="#091A3E"/>
<path d="M90.2435 35.9373H80.2811C80.2811 37.5546 80.7242 38.7978 81.6103 39.6667C82.3932 40.4238 83.3997 40.8023 84.63 40.8023C86.0323 40.8023 87.2023 40.3937 88.14 39.5764L89.1724 41.3443C88.7938 41.7228 88.2131 42.0497 87.4303 42.325C86.4495 42.6864 85.3569 42.867 84.1525 42.867C82.4147 42.867 80.9392 42.2777 79.7262 41.0991C78.3755 39.8 77.7002 38.0536 77.7002 35.8598C77.7002 33.58 78.3927 31.7519 79.7778 30.3754C81.0167 29.1451 82.4835 28.53 84.1783 28.53C86.1484 28.53 87.6927 29.0849 88.8111 30.1947C89.895 31.2615 90.437 32.6767 90.437 34.4403C90.437 34.9823 90.3725 35.4813 90.2435 35.9373ZM84.2944 30.5948C83.2019 30.5948 82.2856 30.9475 81.5458 31.6529C80.8403 32.324 80.4403 33.1585 80.3456 34.1564H87.9981C87.9981 33.1671 87.6884 32.3412 87.0689 31.6788C86.3893 30.9561 85.4645 30.5948 84.2944 30.5948Z" fill="#091A3E"/>
<path d="M70.1056 42.8669H68.8023L61.7563 23.7036H64.6212L69.4862 37.6277L74.1706 23.7036H76.9451L70.1056 42.8669Z" fill="#091A3E"/>
<path d="M49.7561 57.3347C49.7561 60.5684 46.6178 63.6458 43.3395 63.6458H6.96549C3.69296 63.6458 0.548828 60.5684 0.548828 57.3347V6.44365C0.548828 3.20962 3.68055 0.131836 6.96549 0.131836H43.3398C46.624 0.131836 49.7565 3.20962 49.7565 6.44365V57.3347H49.7561Z" fill="#FDFEFF"/>
<path d="M2.49023 36.836C2.49023 36.836 10.4018 33.8749 17.374 34.1128C25.0908 34.3816 25.8175 35.0532 33.6018 36.5551C38.1992 37.44 43.4008 37.2387 47.8081 35.8218L47.8143 56.0037C47.8143 59.3065 45.5005 61.6266 42.1915 61.6266H8.10071C4.82854 61.6266 2.4906 59.2941 2.4906 56.0037L2.49023 36.836Z" fill="#1C4FB9"/>
<path d="M2.29663 48.4873C2.29663 48.4873 10.5796 44.9244 17.3552 44.3805C24.5678 43.803 26.6891 44.4782 34.5167 46.0698C39.1058 47.0026 44.6287 46.0625 47.8626 44.4771L47.8557 45.9786C44.6185 47.56 39.1131 48.2965 34.52 47.4115C26.7361 45.9119 24.1921 45.1925 17.4212 45.7528C10.9152 46.2909 2.30283 50.1485 2.30283 50.1485L2.29663 48.4873Z" fill="#F7FDFF"/>
<path d="M28.831 34.3093C20.1797 29.9756 11.6684 27.8876 2.49023 31.5005V35.3665C13.8049 31.4031 20.6076 32.8717 28.831 34.3093Z" fill="#59CD8B"/>
<path d="M12.2495 25.2571C9.24615 25.2571 6.0152 25.7598 2.49023 26.9942V30.0526C3.22784 29.8472 6.57917 28.3863 11.8011 28.387C15.2652 28.387 19.5533 29.0297 24.4444 31.109C25.3845 31.5056 24.1818 30.8953 28.8828 33.1048C33.2085 35.1396 37.0636 35.7561 40.1479 35.7561C44.8946 35.7561 47.8147 34.2962 47.8147 34.2962V30.9748C47.8147 30.9748 43.8144 32.5627 40.1319 32.5627C39.7674 32.5627 39.4074 32.5474 39.0535 32.5135C38.4133 32.4522 35.2929 32.8429 29.6945 30.1996C24.4886 27.7439 18.9292 25.2564 12.2495 25.2571Z" fill="#59CD8B"/>
<path d="M27.8049 27.8826C28.8897 28.401 31.15 29.5515 32.8065 30.2738C26.7678 24.6542 19.9823 20.5561 10.8731 20.6594C7.93327 20.6926 5.17655 21.0563 2.49023 21.8431V25.5271C13.0217 21.8537 21.3842 24.8143 27.8049 27.8826Z" fill="#59CD8B"/>
<path d="M47.8147 7.69063C47.8147 4.40131 45.5008 2.07213 42.1947 2.07213C40.6309 2.07213 8.09816 2.07213 8.09816 2.07213C4.82526 2.07213 2.49023 4.39986 2.49023 7.68917C2.49023 9.71011 2.49023 20.1734 2.49023 20.1734C2.49023 20.1734 10.4981 17.7917 19.2327 20.1854C24.378 21.595 27.0472 23.4405 33.1552 28.1309C37.2763 31.2944 41.6224 30.9872 43.5616 30.4889C46.4814 29.8181 47.8151 29.152 47.8151 29.152V7.69063H47.8147Z" fill="#B1E6FB"/>
<path d="M40.5498 31.7694C40.5498 36.0783 37.0551 39.5745 32.7462 39.5745C28.4351 39.5745 24.9412 36.0787 24.9412 31.7694C24.9412 27.4587 28.4351 23.9658 32.7462 23.9658C37.0551 23.9658 40.5498 27.4583 40.5498 31.7694Z" fill="#F7FDFF"/>
</svg>
