<svg width="1120" height="238" viewBox="0 0 1120 238" fill="none" xmlns="http://www.w3.org/2000/svg">
<path d="M1107.75 151.041C1104.36 155.292 1099.18 157.418 1092.19 157.418C1088.44 157.418 1085.19 156.065 1082.42 153.36C1079.69 150.625 1078.32 147.236 1078.32 143.193C1078.32 138.348 1080.43 134.26 1084.65 130.931C1088.91 127.572 1094.32 125.892 1100.89 125.892C1102.67 125.892 1104.69 126.279 1106.95 127.051C1106.95 119.322 1103.5 115.458 1096.6 115.458C1091.31 115.458 1087.24 116.885 1084.39 119.738L1080.82 112.649C1082.42 111.341 1084.64 110.226 1087.46 109.304C1090.32 108.353 1093.04 107.877 1095.62 107.877C1102.55 107.877 1107.57 109.453 1110.7 112.604C1113.85 115.755 1115.42 120.764 1115.42 127.631V144.754C1115.42 148.946 1116.67 151.74 1119.17 153.137V157.373C1115.72 157.373 1113.13 156.883 1111.41 155.902C1109.71 154.921 1108.5 153.301 1107.75 151.041ZM1106.95 133.071C1104.27 132.477 1102.4 132.179 1101.33 132.179C1097.05 132.179 1093.56 133.279 1090.85 135.479C1088.15 137.679 1086.79 140.28 1086.79 143.283C1086.79 148.247 1089.72 150.729 1095.58 150.729C1099.86 150.729 1103.65 148.693 1106.95 144.62V133.071Z" fill="#F7FDFF"/>
<path d="M1048.51 115.458H1042.98V108.769H1048.51V98.781L1056.99 95.5259V108.769H1070.1V115.458H1056.99V139.181C1056.99 143.194 1057.65 146.048 1058.99 147.742C1060.36 149.437 1062.54 150.284 1065.55 150.284C1067.72 150.284 1069.96 149.734 1072.28 148.634L1073.53 156.081C1070.02 156.972 1066.17 157.418 1061.98 157.418C1058.2 157.418 1055.01 156.021 1052.39 153.227C1049.81 150.403 1048.51 146.85 1048.51 142.57V115.458Z" fill="#F7FDFF"/>
<path d="M1013.22 115.458H1007.69V108.769H1013.22V98.781L1021.69 95.5259V108.769H1034.8V115.458H1021.69V139.181C1021.69 143.194 1022.36 146.048 1023.7 147.742C1025.06 149.437 1027.25 150.284 1030.25 150.284C1032.42 150.284 1034.67 149.734 1036.99 148.634L1038.23 156.081C1034.73 156.972 1030.88 157.418 1026.68 157.418C1022.91 157.418 1019.71 156.021 1017.1 153.227C1014.51 150.403 1013.22 146.85 1013.22 142.57V115.458Z" fill="#F7FDFF"/>
<path d="M990.59 156.525V126.515C990.59 122.948 989.713 120.138 987.959 118.087C986.205 116.036 983.737 115.01 980.557 115.01C978.505 115.01 976.439 115.62 974.358 116.839C972.307 118.028 970.732 119.425 969.632 121.03V156.525H961.159V89.1921H969.632V114.029C970.761 112.275 972.575 110.819 975.072 109.659C977.599 108.47 980.2 107.876 982.875 107.876C987.929 107.876 991.883 109.54 994.737 112.87C997.62 116.199 999.062 120.748 999.062 126.515V156.525H990.59Z" fill="#F7FDFF"/>
<path d="M920.155 108.767V139.223C920.155 146.595 923.35 150.281 929.742 150.281C932.536 150.281 935.093 149.479 937.411 147.873C939.73 146.268 941.261 144.41 942.004 142.3V108.767H950.477V156.524H942.004V149.925C941.053 151.797 939.136 153.522 936.252 155.097C933.398 156.643 930.604 157.416 927.869 157.416C922.637 157.416 918.624 155.915 915.829 152.912C913.065 149.91 911.682 145.644 911.682 140.115V108.767H920.155Z" fill="#F7FDFF"/>
<path d="M879.867 115.458H874.337V108.769H879.867V98.781L888.339 95.5259V108.769H901.449V115.458H888.339V139.181C888.339 143.194 889.008 146.048 890.346 147.742C891.713 149.437 893.898 150.284 896.9 150.284C899.071 150.284 901.315 149.734 903.634 148.634L904.882 156.081C901.374 156.972 897.525 157.418 893.333 157.418C889.558 157.418 886.362 156.021 883.746 153.227C881.16 150.403 879.867 146.85 879.867 142.57V115.458Z" fill="#F7FDFF"/>
<path d="M860.448 90.7081C861.904 90.7081 863.138 91.2283 864.149 92.2688C865.189 93.2795 865.709 94.4983 865.709 95.9252C865.709 97.3819 865.189 98.6304 864.149 99.6709C863.138 100.682 861.904 101.187 860.448 101.187C859.021 101.187 857.787 100.682 856.746 99.6709C855.736 98.6304 855.23 97.3819 855.23 95.9252C855.23 94.4686 855.736 93.2349 856.746 92.2242C857.757 91.2134 858.991 90.7081 860.448 90.7081ZM855.81 156.525V115.902H849.255V108.767H864.282V156.525H855.81Z" fill="#F7FDFF"/>
<path d="M819.442 115.458H813.913V108.769H819.442V98.781L827.915 95.5259V108.769H841.024V115.458H827.915V139.181C827.915 143.194 828.584 146.048 829.921 147.742C831.289 149.437 833.474 150.284 836.476 150.284C838.646 150.284 840.891 149.734 843.209 148.634L844.458 156.081C840.95 156.972 837.1 157.418 832.909 157.418C829.133 157.418 825.938 156.021 823.322 153.227C820.736 150.403 819.442 146.85 819.442 142.57V115.458Z" fill="#F7FDFF"/>
<path d="M777.192 153.672L780.18 145.646C784.907 148.738 788.712 150.283 791.595 150.283C796.827 150.283 799.443 148.084 799.443 143.684C799.443 140.533 796.916 137.828 791.863 135.568C787.969 133.785 785.338 132.432 783.97 131.511C782.632 130.589 781.458 129.549 780.448 128.389C779.467 127.2 778.723 125.952 778.218 124.644C777.742 123.306 777.505 121.879 777.505 120.363C777.505 116.439 778.931 113.377 781.785 111.177C784.639 108.977 788.37 107.877 792.978 107.877C796.456 107.877 800.84 108.977 806.132 111.177L803.724 119.025C800.365 116.35 796.991 115.012 793.602 115.012C791.58 115.012 789.871 115.487 788.474 116.439C787.106 117.39 786.423 118.594 786.423 120.051C786.423 123.113 788.162 125.431 791.64 127.007L797.704 129.771C801.42 131.466 804.125 133.398 805.82 135.568C807.514 137.738 808.362 140.459 808.362 143.729C808.362 148.009 806.86 151.368 803.858 153.806C800.855 156.214 796.694 157.418 791.372 157.418C786.348 157.418 781.622 156.169 777.192 153.672Z" fill="#F7FDFF"/>
<path d="M760.672 156.526V128.746C760.672 123.663 759.899 120.11 758.354 118.089C756.838 116.037 754.281 115.012 750.684 115.012C748.752 115.012 746.73 115.592 744.62 116.751C742.509 117.91 740.889 119.337 739.759 121.032V156.526H731.287V108.769H737.084L739.759 114.923C742.554 110.226 747.117 107.877 753.449 107.877C763.913 107.877 769.145 114.239 769.145 126.962V156.526H760.672Z" fill="#F7FDFF"/>
<path d="M714.896 90.7081C716.353 90.7081 717.587 91.2283 718.597 92.2688C719.638 93.2795 720.158 94.4983 720.158 95.9252C720.158 97.3819 719.638 98.6304 718.597 99.6709C717.587 100.682 716.353 101.187 714.896 101.187C713.469 101.187 712.236 100.682 711.195 99.6709C710.185 98.6304 709.679 97.3819 709.679 95.9252C709.679 94.4686 710.185 93.2349 711.195 92.2242C712.206 91.2134 713.44 90.7081 714.896 90.7081ZM710.259 156.525V115.902H703.704V108.767H718.731V156.525H710.259Z" fill="#F7FDFF"/>
<path d="M686.065 151.041C682.676 155.292 677.489 157.418 670.503 157.418C666.757 157.418 663.502 156.065 660.737 153.36C658.002 150.625 656.635 147.236 656.635 143.193C656.635 138.348 658.745 134.26 662.967 130.931C667.218 127.572 672.628 125.892 679.198 125.892C680.981 125.892 683.003 126.279 685.262 127.051C685.262 119.322 681.814 115.458 674.917 115.458C669.626 115.458 665.553 116.885 662.699 119.738L659.132 112.649C660.737 111.341 662.952 110.226 665.776 109.304C668.63 108.353 671.35 107.877 673.936 107.877C680.863 107.877 685.887 109.453 689.008 112.604C692.159 115.755 693.735 120.764 693.735 127.631V144.754C693.735 148.946 694.983 151.74 697.48 153.137V157.373C694.032 157.373 691.446 156.883 689.721 155.902C688.027 154.921 686.808 153.301 686.065 151.041ZM685.262 133.071C682.587 132.477 680.714 132.179 679.644 132.179C675.363 132.179 671.87 133.279 669.165 135.479C666.46 137.679 665.107 140.28 665.107 143.283C665.107 148.247 668.035 150.729 673.891 150.729C678.172 150.729 681.963 148.693 685.262 144.62V133.071Z" fill="#F7FDFF"/>
<path d="M650.464 116.929C648.621 115.651 646.763 115.012 644.89 115.012C641.888 115.012 639.257 116.394 636.997 119.159C634.768 121.923 633.653 125.253 633.653 129.147V156.526H625.181V108.769H633.653V116.394C636.745 110.716 641.338 107.877 647.432 107.877C648.948 107.877 651.133 108.145 653.987 108.68L650.464 116.929Z" fill="#F7FDFF"/>
<path d="M604.417 151.041C601.028 155.292 595.841 157.418 588.855 157.418C585.109 157.418 581.854 156.065 579.089 153.36C576.354 150.625 574.987 147.236 574.987 143.193C574.987 138.348 577.097 134.26 581.319 130.931C585.57 127.572 590.98 125.892 597.55 125.892C599.334 125.892 601.355 126.279 603.614 127.051C603.614 119.322 600.166 115.458 593.269 115.458C587.978 115.458 583.905 116.885 581.051 119.738L577.484 112.649C579.089 111.341 581.304 110.226 584.128 109.304C586.982 108.353 589.702 107.877 592.288 107.877C599.215 107.877 604.239 109.453 607.36 112.604C610.511 115.755 612.087 120.764 612.087 127.631V144.754C612.087 148.946 613.335 151.74 615.832 153.137V157.373C612.384 157.373 609.798 156.883 608.073 155.902C606.379 154.921 605.16 153.301 604.417 151.041ZM603.614 133.071C600.939 132.477 599.066 132.179 597.996 132.179C593.715 132.179 590.222 133.279 587.517 135.479C584.812 137.679 583.459 140.28 583.459 143.283C583.459 148.247 586.387 150.729 592.244 150.729C596.524 150.729 600.315 148.693 603.614 144.62V133.071Z" fill="#F7FDFF"/>
<path d="M568.724 133.472H534.299C534.299 139.061 535.83 143.357 538.892 146.359C541.597 148.975 545.075 150.283 549.326 150.283C554.172 150.283 558.215 148.871 561.455 146.047L565.022 152.156C563.714 153.464 561.708 154.594 559.003 155.545C555.614 156.794 551.838 157.418 547.677 157.418C541.672 157.418 536.573 155.382 532.382 151.309C527.715 146.82 525.381 140.785 525.381 133.205C525.381 125.327 527.774 119.01 532.56 114.254C536.841 110.003 541.909 107.877 547.766 107.877C554.573 107.877 559.909 109.795 563.774 113.629C567.52 117.316 569.392 122.206 569.392 128.3C569.392 130.173 569.169 131.897 568.724 133.472ZM548.167 115.012C544.392 115.012 541.226 116.231 538.669 118.668C536.231 120.987 534.849 123.871 534.522 127.319H560.965C560.965 123.9 559.894 121.046 557.754 118.757C555.406 116.26 552.21 115.012 548.167 115.012Z" fill="#F7FDFF"/>
<path d="M508.861 156.526V128.746C508.861 123.662 508.088 120.11 506.542 118.089C505.026 116.037 502.47 115.012 498.873 115.012C496.94 115.012 494.919 115.591 492.808 116.751C490.698 117.91 489.078 119.337 487.948 121.032V156.526H479.476V108.769H485.272L487.948 114.923C490.742 110.226 495.305 107.877 501.637 107.877C512.101 107.877 517.333 114.239 517.333 126.962V156.526H508.861Z" fill="#F7FDFF"/>
<path d="M463.085 90.708C464.542 90.708 465.776 91.2282 466.786 92.2687C467.827 93.2794 468.347 94.4983 468.347 95.9252C468.347 97.3818 467.827 98.6304 466.786 99.6708C465.776 100.682 464.542 101.187 463.085 101.187C461.658 101.187 460.425 100.682 459.384 99.6708C458.373 98.6304 457.868 97.3818 457.868 95.9252C457.868 94.4685 458.373 93.2348 459.384 92.2241C460.395 91.2134 461.629 90.708 463.085 90.708ZM458.448 156.524V115.902H451.893V108.767H466.92V156.524H458.448Z" fill="#F7FDFF"/>
<path d="M445.718 116.929C443.875 115.651 442.017 115.012 440.144 115.012C437.141 115.012 434.51 116.394 432.251 119.159C430.022 121.923 428.907 125.253 428.907 129.147V156.526H420.435V108.769H428.907V116.394C431.999 110.716 436.591 107.877 442.686 107.877C444.202 107.877 446.387 108.145 449.24 108.68L445.718 116.929Z" fill="#F7FDFF"/>
<path d="M411.04 133.472H376.616C376.616 139.061 378.147 143.357 381.209 146.359C383.914 148.975 387.392 150.283 391.643 150.283C396.489 150.283 400.532 148.871 403.772 146.047L407.339 152.156C406.031 153.464 404.025 154.594 401.319 155.545C397.931 156.794 394.155 157.418 389.993 157.418C383.988 157.418 378.89 155.382 374.699 151.309C370.031 146.82 367.698 140.785 367.698 133.205C367.698 125.327 370.091 119.01 374.877 114.254C379.158 110.003 384.226 107.877 390.082 107.877C396.89 107.877 402.226 109.795 406.091 113.629C409.836 117.316 411.709 122.206 411.709 128.3C411.709 130.173 411.486 131.897 411.04 133.472ZM390.484 115.012C386.708 115.012 383.542 116.231 380.986 118.668C378.548 120.987 377.166 123.871 376.839 127.319H403.281C403.281 123.9 402.211 121.046 400.071 118.757C397.722 116.26 394.527 115.012 390.484 115.012Z" fill="#F7FDFF"/>
<path d="M338.56 115.458H333.031V108.769H338.56V98.781L347.032 95.5259V108.769H360.142V115.458H347.032V139.181C347.032 143.194 347.701 146.048 349.039 147.742C350.406 149.437 352.591 150.284 355.594 150.284C357.764 150.284 360.008 149.734 362.327 148.634L363.576 156.081C360.068 156.972 356.218 157.418 352.026 157.418C348.251 157.418 345.055 156.021 342.439 153.227C339.853 150.403 338.56 146.85 338.56 142.57V115.458Z" fill="#F7FDFF"/>
<path d="M326.808 133.472H292.383C292.383 139.061 293.914 143.357 296.976 146.359C299.681 148.975 303.159 150.283 307.41 150.283C312.256 150.283 316.299 148.871 319.539 146.047L323.106 152.156C321.798 153.464 319.792 154.594 317.087 155.545C313.698 156.794 309.922 157.418 305.761 157.418C299.756 157.418 294.657 155.382 290.466 151.309C285.799 146.82 283.465 140.785 283.465 133.205C283.465 125.327 285.858 119.01 290.644 114.254C294.925 110.003 299.993 107.877 305.85 107.877C312.657 107.877 317.993 109.795 321.858 113.629C325.604 117.316 327.476 122.206 327.476 128.3C327.476 130.173 327.253 131.897 326.808 133.472ZM306.251 115.012C302.476 115.012 299.31 116.231 296.753 118.668C294.315 120.987 292.933 123.871 292.606 127.319H319.049C319.049 123.9 317.978 121.046 315.838 118.757C313.49 116.26 310.294 115.012 306.251 115.012Z" fill="#F7FDFF"/>
<path d="M257.226 157.417H252.722L228.375 91.1993H238.274L255.085 139.313L271.272 91.1993H280.859L257.226 157.417Z" fill="#F7FDFF"/>
<path d="M183.61 214.101C183.61 226.164 171.902 237.644 159.673 237.644H23.9839C11.7761 237.644 0.0472412 226.164 0.0472412 214.101V24.2575C0.0472412 12.1933 11.7298 0.711975 23.9839 0.711975H159.674C171.926 0.711975 183.611 12.1933 183.611 24.2575V214.101H183.61Z" fill="#F7FDFF"/>
<path d="M7.28979 137.634C7.28979 137.634 36.803 126.588 62.8122 127.476C91.5987 128.478 94.3095 130.984 123.348 136.586C140.498 139.888 159.902 139.136 176.343 133.851L176.366 209.137C176.366 221.458 167.735 230.113 155.391 230.113H28.219C16.0126 230.113 7.29116 221.412 7.29116 209.137L7.28979 137.634Z" fill="#1C4FB9"/>
<path d="M6.56598 181.098C6.56598 181.098 37.4645 167.807 62.7402 165.778C89.6461 163.623 97.5592 166.142 126.759 172.08C143.878 175.559 164.481 172.052 176.545 166.138L176.519 171.739C164.443 177.638 143.906 180.386 126.772 177.085C97.7348 171.49 88.2445 168.807 62.9865 170.897C38.7165 172.904 6.58911 187.295 6.58911 187.295L6.56598 181.098Z" fill="#F7FDFF"/>
<path d="M105.551 128.206C73.2782 112.04 41.5278 104.25 7.28979 117.728V132.15C49.498 117.364 74.8744 122.843 105.551 128.206Z" fill="#59CD8B"/>
<path d="M43.6955 94.4377C32.492 94.4377 20.4393 96.3129 7.28979 100.918V112.327C10.0414 111.561 22.5431 106.111 42.0231 106.113C54.9453 106.113 70.9417 108.511 89.1874 116.268C92.6942 117.747 88.2076 115.47 105.744 123.713C121.881 131.303 136.262 133.603 147.768 133.603C165.474 133.603 176.368 128.157 176.368 128.157V115.767C176.368 115.767 161.445 121.691 147.708 121.691C146.348 121.691 145.005 121.634 143.685 121.507C141.297 121.278 129.657 122.736 108.772 112.875C89.3521 103.714 68.6133 94.435 43.6955 94.4377Z" fill="#59CD8B"/>
<path d="M101.723 104.232C105.77 106.166 114.202 110.458 120.381 113.152C97.8544 92.1889 72.542 76.9015 38.5612 77.2867C27.5944 77.4105 17.3108 78.7672 7.28979 81.7025V95.4453C46.5764 81.742 77.7715 92.7863 101.723 104.232Z" fill="#59CD8B"/>
<path d="M176.368 28.9094C176.368 16.639 167.736 7.9502 155.403 7.9502C149.569 7.9502 28.2095 7.9502 28.2095 7.9502C16.0003 7.9502 7.28979 16.6335 7.28979 28.9039C7.28979 36.4428 7.28979 75.475 7.28979 75.475C7.28979 75.475 37.1623 66.5902 69.7455 75.5199C88.9397 80.778 98.8968 87.6624 121.682 105.16C137.055 116.961 153.268 115.815 160.502 113.956C171.394 111.453 176.369 108.969 176.369 108.969V28.9094H176.368Z" fill="#B1E6FB"/>
<path d="M149.268 118.732C149.268 134.806 136.231 147.848 120.158 147.848C104.075 147.848 91.0416 134.807 91.0416 118.732C91.0416 102.651 104.075 89.6212 120.158 89.6212C136.231 89.6212 149.268 102.65 149.268 118.732Z" fill="#F7FDFF"/>
</svg>
